HIERARCHY
ROOT root
{
	OFFSET	0	13.1	24.9
	CHANNELS 6  Xposition Yposition Zposition Xrotation Yrotation Zrotation
	JOINT spine_1
	{
		OFFSET	0	9.99999	0
		CHANNELS 3  Xrotation Yrotation Zrotation
		JOINT spine_2
		{
			OFFSET	0	112	-10
			CHANNELS 3  Xrotation Yrotation Zrotation
			JOINT spine_3
			{
				OFFSET	0	206.5	19.3
				CHANNELS 3  Xrotation Yrotation Zrotation
				JOINT spine_4
				{
					OFFSET	0	110.4	14.6
					CHANNELS 3  Xrotation Yrotation Zrotation
					JOINT neck_1
					{
						OFFSET	0	71.8	-50.3
						CHANNELS 3  Xrotation Yrotation Zrotation
						JOINT neck_2
						{
							OFFSET	0	86.2	-25.8
							CHANNELS 3  Xrotation Yrotation Zrotation
							JOINT head_ee
							{
								OFFSET	0	179.8	-8.7
								CHANNELS 3  Xrotation Yrotation Zrotation
								End Site
								{
									OFFSET	1	0	0
								}
							}
						}
					}
					JOINT left_clavicle
					{
						OFFSET	-43.2	22.4	-70.8
						CHANNELS 3  Xrotation Yrotation Zrotation
						JOINT left_shoulder
						{
							OFFSET	-93.9	-5.79999	48.7
							CHANNELS 3  Xrotation Yrotation Zrotation
							JOINT left_elbow
							{
								OFFSET	-291.4	-30.8	15.2
								CHANNELS 3  Xrotation Yrotation Zrotation
								JOINT left_lowarm_twist
								{
									OFFSET	-110.7	-3.89999	13.6
									CHANNELS 3  Xrotation Yrotation Zrotation
									JOINT left_hand
									{
										OFFSET	-110.7	-3.89999	13.6
										CHANNELS 3  Xrotation Yrotation Zrotation
										JOINT left_ee
										{
											OFFSET	-80.8	-5.10001	12.1
											CHANNELS 3  Xrotation Yrotation Zrotation
											End Site
											{
												OFFSET	1	0	0
											}
										}
									}
								}
							}
						}
					}
					JOINT right_clavicle
					{
						OFFSET	43.2	22.4	-70.8
						CHANNELS 3  Xrotation Yrotation Zrotation
						JOINT right_shoulder
						{
							OFFSET	93.9	-5.79999	48.7
							CHANNELS 3  Xrotation Yrotation Zrotation
							JOINT right_elbow
							{
								OFFSET	291.4	-30.8	15.2
								CHANNELS 3  Xrotation Yrotation Zrotation
								JOINT right_lowarm_twist
								{
									OFFSET	110.7	-3.89999	13.6
									CHANNELS 3  Xrotation Yrotation Zrotation
									JOINT right_hand
									{
										OFFSET	110.7	-3.89999	13.6
										CHANNELS 3  Xrotation Yrotation Zrotation
										JOINT right_ee
										{
											OFFSET	80.8	-5.10001	12.1
											CHANNELS 3  Xrotation Yrotation Zrotation
											End Site
											{
												OFFSET	1	0	0
											}
										}
									}
								}
							}
						}
					}
				}
			}
		}
	}
	JOINT left_hip
	{
		OFFSET	-82.8	-127.5	0.300001
		CHANNELS 3  Xrotation Yrotation Zrotation
		JOINT left_knee
		{
			OFFSET	-28.2	-396.7	2.2
			CHANNELS 3  Xrotation Yrotation Zrotation
			JOINT left_ankle
			{
				OFFSET	-11.7	-411.3	35.4
				CHANNELS 3  Xrotation Yrotation Zrotation
				JOINT left_toes
				{
					OFFSET	0	-60	-88.6
					CHANNELS 3  Xrotation Yrotation Zrotation
					JOINT left_foot_ee
					{
						OFFSET	-22.5	-16.5	-42.2
						CHANNELS 3  Xrotation Yrotation Zrotation
						End Site
						{
							OFFSET	1	0	0
						}
					}
				}
			}
		}
	}
	JOINT right_hip
	{
		OFFSET	82.8	-127.5	0.300001
		CHANNELS 3  Xrotation Yrotation Zrotation
		JOINT right_knee
		{
			OFFSET	28.2	-396.7	2.2
			CHANNELS 3  Xrotation Yrotation Zrotation
			JOINT right_ankle
			{
				OFFSET	11.7	-411.3	35.4
				CHANNELS 3  Xrotation Yrotation Zrotation
				JOINT right_toes
				{
					OFFSET	0	-60	-88.6
					CHANNELS 3  Xrotation Yrotation Zrotation
					JOINT right_foot_ee
					{
						OFFSET	22.5	-16.5	-42.2
						CHANNELS 3  Xrotation Yrotation Zrotation
						End Site
						{
							OFFSET	1	0	0
						}
					}
				}
			}
		}
	}
}
MOTION
Frames: 11
Frame Time: 0.02
2383.72 748.041 -1346.53 1.09071 66.3492 -5.93162 0.901483 0.365963 2.02573 0.903736 0.236347 2.0449 0.912855 -0.166075 2.0518 0.907015 0.159984 2.05229 1.59254 15.5257 -1.89454 2.44925 28.9864 -0.933964 -0.0 0.0 -0.0 -0.223033 22.4517 2.29206 -16.5468 -17.7446 67.3202 0.912799 -24.3309 0.196782 3.5323 0.110994 -0.437454 0.421391 3.55142 4.27581 -0.0 0.0 -0.0 13.2506 27.4971 -26.0704 -8.25115 15.2017 -65.1441 1.30205 32.8203 -0.38348 19.3722 -0.271041 2.44801 0.0210201 -2.44115 -1.16471 0.0 0.0 0.0 10.0925 23.0839 -1.34366 -36.3775 -0.252537 5.48449 34.0892 -6.16523 -4.40222 -17.3827 0.0 0.0 -0.0 0.0 -0.0 13.8867 -5.58229 2.56397 -15.9894 -0.321835 -2.42469 20.3028 28.6969 3.4095 -21.4229 0.0 0.0 0.0 0.0 0.0 
2376.9 748.31 -1343.75 0.281325 67.0664 -5.06913 1.0313 0.34672 2.04134 1.03359 0.21615 2.05926 1.04195 -0.184045 2.06238 1.03605 0.143907 2.06556 1.37929 15.2768 -2.24564 2.22199 28.8708 -1.29051 -0.0 0.0 -0.0 -0.156232 21.5314 2.27978 -16.8953 -16.2137 67.7925 0.838916 -22.5664 0.167379 4.25377 0.130333 -0.527585 0.427337 3.45446 4.27567 -0.0 0.0 -0.0 12.6799 26.9606 -24.8242 -8.13158 16.9389 -65.3181 1.39576 34.6588 -0.435536 18.6565 -0.275843 2.35673 0.226941 -0.964194 -1.91766 0.0 0.0 0.0 11.0616 20.7411 -1.25199 -28.5245 0.0977462 4.33137 33.0888 -4.19905 -4.27355 -20.4119 0.0 0.0 -0.0 0.0 -0.0 13.6353 -4.70981 2.76355 -15.664 -0.322072 -2.37476 19.7538 29.2847 3.35272 -22.9246 0.0 0.0 0.0 0.0 0.0 
2370.87 746.179 -1343.04 0.559629 68.2891 -5.30864 0.913712 0.183723 2.11365 0.916197 0.0488841 2.12106 0.918581 -0.364694 2.09006 0.912486 -0.0301096 2.12141 0.493905 15.3557 -2.21098 1.26671 29.132 -1.03631 -0.0 0.0 -0.0 -0.159246 20.5775 2.16531 -15.9209 -15.4754 68.1708 0.738107 -20.0842 0.130709 4.58274 0.138774 -0.56876 0.488459 3.80241 4.8221 -0.0 0.0 -0.0 12.1801 26.716 -23.7091 -8.98644 19.4157 -65.4557 1.571 37.8882 -0.539253 17.8629 -0.279834 2.25544 0.500766 1.01544 -2.92518 0.0 0.0 0.0 11.6849 21.3926 -1.67457 -23.2544 0.242816 3.53587 30.4893 -2.67034 -3.98631 -22.806 0.0 0.0 -0.0 0.0 -0.0 13.5029 -4.95885 2.99846 -16.401 -0.321129 -2.48783 19.3208 28.5166 3.25557 -22.9902 0.0 0.0 0.0 0.0 0.0 
2365.42 745.702 -1342.33 0.0561295 69.251 -4.87657 0.897317 0.245829 2.08948 0.899739 0.112402 2.10088 0.904485 -0.298934 2.08255 0.898434 0.0336421 2.10362 -0.929012 15.206 -2.4214 -0.281169 29.2564 -0.926917 -0.0 0.0 -0.0 -0.128717 20.2455 2.17139 -16.1141 -15.8443 68.0496 0.735379 -20.0159 0.129774 5.41012 0.158955 -0.672523 0.475369 4.32632 4.9478 -0.0 0.0 -0.0 11.9052 26.3513 -23.1246 -9.14181 19.3373 -65.4485 1.67367 39.6584 -0.603558 17.0693 -0.282422 2.15411 0.890766 4.38444 -4.14592 0.0 0.0 0.0 10.3468 17.9854 -0.487519 -16.7779 0.320084 2.54565 26.1254 0.396294 -3.47994 -26.0527 0.0 0.0 -0.0 0.0 -0.0 13.8202 -1.8426 2.6185 -16.8924 -0.319692 -2.56321 20.2324 27.3988 3.34556 -23.8046 0.0 0.0 0.0 0.0 0.0 
2362.46 748.229 -1341.02 -1.90186 70.2868 -2.61944 0.904308 0.360323 2.05127 0.90662 0.229094 2.07003 0.915587 -0.177987 2.07505 0.909611 0.15189 2.07712 -0.937462 15.641 -2.55291 -0.244263 30.1462 -1.02871 -0.0 0.0 -0.0 -0.129004 19.5458 2.09021 -14.6348 -15.4108 68.7077 0.641766 -17.6362 0.0995593 6.42618 0.181686 -0.800324 0.432896 4.58371 4.77143 -0.0 0.0 -0.0 12.0278 25.8623 -23.46 -9.78461 19.7055 -65.1665 1.72955 40.5854 -0.639573 15.826 -0.283654 1.99532 1.02932 6.52944 -4.18004 0.0 0.0 0.0 11.4291 18.5975 -0.561105 -13.5081 0.316482 2.04405 25.0316 2.03077 -3.34519 -27.493 0.0 0.0 -0.0 0.0 -0.0 13.8043 -1.9775 2.47454 -16.3558 -0.321228 -2.48089 20.9231 26.6957 3.41762 -24.7867 0.0 0.0 0.0 0.0 0.0 
2358.58 745.331 -1336.55 -2.95342 68.5669 -1.54262 1.06693 0.297167 2.08427 1.06933 0.163967 2.09895 1.07589 -0.241687 2.09143 1.0698 0.0915723 2.10335 -1.65216 15.7488 -2.07961 -1.05294 30.0784 -0.318896 -0.0 0.0 -0.0 -0.253259 19.1014 1.85336 -14.9248 -14.5812 69.3626 0.630144 -17.3361 0.096067 8.26118 0.216978 -1.03206 0.40719 4.76275 4.67434 -0.0 0.0 -0.0 12.3524 24.4343 -24.3577 -9.56841 20.0381 -64.4422 1.78534 41.4859 -0.676203 14.9262 -0.282396 1.8804 1.283 9.40788 -4.6705 0.0 0.0 0.0 9.77357 17.722 0.278372 -10.1875 0.28355 1.53569 25.4436 4.5027 -3.38423 -28.6886 0.0 0.0 -0.0 0.0 -0.0 14.4476 -1.5762 2.08861 -16.2041 -0.321523 -2.45762 20.2827 24.6948 3.25164 -26.1622 0.0 0.0 0.0 0.0 0.0 
2351.75 743.005 -1334.63 -3.35081 68.2696 -0.858666 1.10729 0.366909 1.99533 1.10947 0.239224 2.01462 1.11842 -0.150095 2.02321 1.11275 0.171251 2.02153 -1.24186 15.848 -2.37581 -0.574158 30.427 -0.737112 -0.0 0.0 -0.0 -0.448988 20.1136 1.68734 -13.8188 -14.9041 69.9226 0.59949 -16.54 0.0871362 9.05138 0.229886 -1.13217 0.483536 5.09558 5.31234 -0.0 0.0 -0.0 12.2957 23.7779 -24.2936 -10.192 20.1155 -64.32 1.81494 41.9538 -0.695901 14.2826 -0.280389 1.79822 1.48852 11.5484 -5.13466 0.0 0.0 0.0 10.0088 17.0989 0.422312 -10.1269 0.282675 1.52643 25.1849 4.81525 -3.35379 -29.7964 0.0 0.0 -0.0 0.0 -0.0 14.4632 -0.865221 1.93765 -16.9179 -0.319599 -2.56712 21.9012 24.5963 3.47495 -26.5061 0.0 0.0 0.0 0.0 0.0 
2343.01 743.058 -1333.74 -2.72266 67.8772 -1.44442 1.23333 0.318663 2.05252 1.23565 0.187439 2.06863 1.24287 -0.206791 2.06678 1.23693 0.122141 2.0735 -2.21613 15.9094 -2.03983 -1.66426 30.4253 -0.109105 -0.0 0.0 -0.0 -0.508053 18.1779 1.35626 -14.8908 -14.6933 70.4054 0.590237 -16.2983 0.0845208 9.77383 0.240478 -1.22385 0.449529 5.21959 5.13816 -0.0 0.0 -0.0 12.475 23.5876 -24.7248 -11.2022 20.2873 -64.1715 1.80949 41.868 -0.692256 13.5572 -0.277021 1.70563 1.55282 12.5886 -5.11366 0.0 0.0 0.0 9.61692 16.7108 0.63211 -11.5386 0.300504 1.7423 24.2693 7.0858 -3.24565 -30.2168 0.0 0.0 -0.0 0.0 -0.0 14.1771 0.375113 1.57802 -17.7475 -0.315649 -2.69436 21.6303 23.9334 3.41349 -25.942 0.0 0.0 0.0 0.0 0.0 
2337.27 743.202 -1328.43 -3.17045 68.0621 -0.758825 1.24026 0.353724 2.01828 1.24249 0.224606 2.03669 1.25093 -0.163944 2.04246 1.24515 0.160613 2.04273 -2.51388 16.1435 -1.73847 -1.99411 30.6643 0.319338 -0.0 0.0 -0.0 -0.524129 18.0696 1.31807 -14.3098 -14.7004 71.1084 0.560925 -15.529 0.0764836 10.4029 0.248759 -1.30378 0.437214 5.0061 4.97082 -0.0 0.0 -0.0 12.5465 23.6166 -24.887 -11.6448 20.1952 -64.1255 1.66006 39.4289 -0.594897 13.2825 -0.27544 1.67058 1.60362 13.8809 -4.88573 0.0 0.0 0.0 9.39145 16.4237 0.865289 -11.2699 0.297521 1.70119 25.0168 7.26327 -3.33284 -30.2793 0.0 0.0 -0.0 0.0 -0.0 14.3685 0.817846 1.70607 -17.7312 -0.315745 -2.69185 23.2429 21.5147 3.54777 -26.3176 0.0 0.0 0.0 0.0 0.0 
2328.02 744.696 -1319.43 -3.1599 66.085 -1.15248 1.24802 0.315406 2.04455 1.25032 0.184695 2.06047 1.2574 -0.207423 2.0583 1.25151 0.120179 2.06523 -1.38028 16.3787 -2.247 -0.691611 31.3074 -0.51006 -0.0 0.0 -0.0 -0.619661 18.5028 1.22903 -14.7596 -14.3412 72.1246 0.538063 -14.9248 0.0704787 10.6821 0.252153 -1.33928 0.43785 5.18636 5.0478 -0.0 0.0 -0.0 12.4666 21.8742 -24.862 -12.3627 20.0365 -64.1681 1.64735 39.213 -0.586842 12.3895 -0.269139 1.5567 1.63108 14.8954 -4.61933 0.0 0.0 0.0 9.25147 16.2501 1.53386 -13.5696 0.316814 2.05348 24.4103 8.16177 -3.26312 -30.4364 0.0 0.0 -0.0 0.0 -0.0 14.8768 1.40394 2.7043 -19.2714 -0.303596 -2.92785 23.1711 19.6829 3.48038 -26.6776 0.0 0.0 0.0 0.0 0.0 
2318.58 745.64 -1315.98 -3.55136 66.0142 -0.465536 1.31003 0.192855 1.86122 1.31196 0.0740509 1.86971 1.31464 -0.278276 1.85038 1.30986 0.0173956 1.8711 -1.2445 16.4516 -2.35943 -0.526923 31.5055 -0.662571 -0.0 0.0 -0.0 -0.645671 18.6002 1.20249 -15.0293 -13.989 72.1352 0.554238 -15.3526 0.0747031 10.9518 0.255266 -1.37358 0.465289 5.1257 5.20417 -0.0 0.0 -0.0 12.3727 20.6569 -24.7434 -12.9551 19.287 -63.5813 1.57706 37.9953 -0.542983 11.8618 -0.264581 1.48945 1.598 15.4949 -4.12918 0.0 0.0 0.0 8.63008 16.6858 2.32802 -14.56 0.320764 2.20538 26.9827 10.7624 -3.5671 -29.6372 0.0 0.0 -0.0 0.0 -0.0 14.8576 2.77127 2.57169 -20.1087 -0.294331 -3.05599 23.3617 16.8856 3.42625 -26.7609 0.0 0.0 0.0 0.0 0.0 
